<svg xmlns="http://www.w3.org/2000/svg" viewBox="0 0 640 440" font-family="Helvetica,Arial,'PingFang SC','Noto Sans SC',sans-serif">
<defs><marker id="a" viewBox="0 0 10 10" refX="9" refY="5" markerWidth="7" markerHeight="7" orient="auto-start-reverse"><path d="M0 0L10 5L0 10z" fill="context-stroke"/></marker></defs>
<rect width="640" height="440" fill="#fff"/><text x="320" y="42" font-size="20" fill="#10262E" text-anchor="middle" font-weight="normal">混合动作：离散选择 + 连续参数</text><rect x="60" y="120" width="80" height="80" rx="6" fill="#1F6A7A" opacity="0.15"/><circle cx="105.72912192197353" cy="187.4857204176487" r="2" fill="#10262E" opacity=".6"/><circle cx="112.37478529117773" cy="189.16830088160117" r="2" fill="#10262E" opacity=".6"/><circle cx="124.23523851497939" cy="193.38729585107944" r="2" fill="#10262E" opacity=".6"/><circle cx="111.64660086705123" cy="137.09077429403274" r="2" fill="#10262E" opacity=".6"/><circle cx="124.52335225190623" cy="191.59504041701618" r="2" fill="#10262E" opacity=".6"/><circle cx="127.5193269468321" cy="164.699310236254" r="2" fill="#10262E" opacity=".6"/><circle cx="114.53955737184555" cy="140.3564988899407" r="2" fill="#10262E" opacity=".6"/><circle cx="122.54933925858808" cy="165.00019995988737" r="2" fill="#10262E" opacity=".6"/><circle cx="85.37710741506196" cy="130.3153192458756" r="2" fill="#10262E" opacity=".6"/><circle cx="124.06808921274225" cy="193.30680901466752" r="2" fill="#10262E" opacity=".6"/><circle cx="72.01923033146153" cy="180.44048184551013" r="2" fill="#10262E" opacity=".6"/><circle cx="93.9114042595218" cy="136.25204546279105" r="2" fill="#10262E" opacity=".6"/><circle cx="85.98460478369623" cy="178.27784833485944" r="2" fill="#10262E" opacity=".6"/><circle cx="125.3481576747177" cy="129.00492415680895" r="2" fill="#10262E" opacity=".6"/><circle cx="107.788211940163" cy="129.05593655773046" r="2" fill="#10262E" opacity=".6"/><circle cx="114.8539524664991" cy="148.5048819292925" r="2" fill="#10262E" opacity=".6"/><circle cx="125.90156089282036" cy="192.6832314653471" r="2" fill="#10262E" opacity=".6"/><circle cx="100.36858540806699" cy="193.8986082855528" r="2" fill="#10262E" opacity=".6"/><circle cx="87.05756363639105" cy="131.234007919968" r="2" fill="#10262E" opacity=".6"/><circle cx="106.78387099816885" cy="128.13368782792162" r="2" fill="#10262E" opacity=".6"/><circle cx="79.42217023713252" cy="153.73965722195538" r="2" fill="#10262E" opacity=".6"/><circle cx="107.51176436177923" cy="136.6215313889224" r="2" fill="#10262E" opacity=".6"/><circle cx="68.88563608104188" cy="185.0089743070851" r="2" fill="#10262E" opacity=".6"/><circle cx="87.34047535429423" cy="191.18884099577494" r="2" fill="#10262E" opacity=".6"/><circle cx="126.9728556170769" cy="151.68966828002843" r="2" fill="#10262E" opacity=".6"/><circle cx="97.30785503352152" cy="161.36496295229435" r="2" fill="#10262E" opacity=".6"/><circle cx="109.78443285036542" cy="166.50421621133398" r="2" fill="#10262E" opacity=".6"/><circle cx="104.02975221704656" cy="168.16857721027782" r="2" fill="#10262E" opacity=".6"/><circle cx="129.96224536882949" cy="160.47782348430485" r="2" fill="#10262E" opacity=".6"/><circle cx="95.32102563330344" cy="174.9811651458014" r="2" fill="#10262E" opacity=".6"/><circle cx="82.15922212360532" cy="146.47390655984216" r="2" fill="#10262E" opacity=".6"/><circle cx="132.49021751850722" cy="161.436655943122" r="2" fill="#10262E" opacity=".6"/><circle cx="103.29327180270663" cy="126.7791090727669" r="2" fill="#10262E" opacity=".6"/><circle cx="94.23430337866398" cy="165.43763453820046" r="2" fill="#10262E" opacity=".6"/><circle cx="67.36359654071275" cy="167.87426000882544" r="2" fill="#10262E" opacity=".6"/><circle cx="108.98827640013585" cy="130.08547472268518" r="2" fill="#10262E" opacity=".6"/><circle cx="108.659195412745" cy="157.70502921937614" r="2" fill="#10262E" opacity=".6"/><circle cx="112.19113506659139" cy="149.9752348467912" r="2" fill="#10262E" opacity=".6"/><circle cx="114.07261695688113" cy="176.18633166913833" r="2" fill="#10262E" opacity=".6"/><circle cx="67.50840789137507" cy="130.11922264791423" r="2" fill="#10262E" opacity=".6"/><path d="M142 160L153 160" stroke="#8A9AA0" stroke-width="2" fill="none" marker-end="url(#a)"/><rect x="155" y="120" width="80" height="80" rx="6" fill="#1F6A7A" opacity="0.35"/><circle cx="206.96938104514163" cy="191.50477946626552" r="2" fill="#10262E" opacity=".6"/><circle cx="178.07631491647598" cy="157.02922481527378" r="2" fill="#10262E" opacity=".6"/><circle cx="201.30168754532127" cy="147.76172623086444" r="2" fill="#10262E" opacity=".6"/><circle cx="185.74894607511706" cy="147.26160496138993" r="2" fill="#10262E" opacity=".6"/><circle cx="186.10247031883287" cy="166.5022623983125" r="2" fill="#10262E" opacity=".6"/><circle cx="181.42747018886007" cy="151.64690321036636" r="2" fill="#10262E" opacity=".6"/><circle cx="213.51459204620022" cy="127.83064194063444" r="2" fill="#10262E" opacity=".6"/><circle cx="199.70954414079958" cy="175.99177635413866" r="2" fill="#10262E" opacity=".6"/><circle cx="182.08113528788633" cy="141.132573309937" r="2" fill="#10262E" opacity=".6"/><circle cx="215.6589215868541" cy="142.23127202905326" r="2" fill="#10262E" opacity=".6"/><circle cx="173.74281518242006" cy="155.59593379623183" r="2" fill="#10262E" opacity=".6"/><circle cx="208.4685156538898" cy="132.92523509896725" r="2" fill="#10262E" opacity=".6"/><circle cx="182.893686954246" cy="148.69524823050992" r="2" fill="#10262E" opacity=".6"/><circle cx="217.680644625897" cy="155.8132898141743" r="2" fill="#10262E" opacity=".6"/><circle cx="219.17639319097228" cy="137.51132781383757" r="2" fill="#10262E" opacity=".6"/><circle cx="183.89629598305189" cy="170.21580158788964" r="2" fill="#10262E" opacity=".6"/><circle cx="221.17308249064763" cy="156.67494853139513" r="2" fill="#10262E" opacity=".6"/><circle cx="176.30189330515617" cy="134.22251408029948" r="2" fill="#10262E" opacity=".6"/><circle cx="197.01467872497074" cy="138.97465879790172" r="2" fill="#10262E" opacity=".6"/><circle cx="215.8608521585311" cy="183.01639377391933" r="2" fill="#10262E" opacity=".6"/><circle cx="173.48386930475738" cy="144.94426565712286" r="2" fill="#10262E" opacity=".6"/><circle cx="215.89139643535285" cy="169.65173344177242" r="2" fill="#10262E" opacity=".6"/><circle cx="215.82553319718374" cy="149.47923073235668" r="2" fill="#10262E" opacity=".6"/><circle cx="169.81886137013527" cy="145.85211657919763" r="2" fill="#10262E" opacity=".6"/><circle cx="214.9826108649232" cy="144.43986558616916" r="2" fill="#10262E" opacity=".6"/><circle cx="184.55209108534604" cy="154.3495873193973" r="2" fill="#10262E" opacity=".6"/><circle cx="189.5444404978051" cy="153.84750391853606" r="2" fill="#10262E" opacity=".6"/><circle cx="223.60164204315888" cy="136.60785440780842" r="2" fill="#10262E" opacity=".6"/><circle cx="161.3170020316539" cy="190.14221284249942" r="2" fill="#10262E" opacity=".6"/><circle cx="220.83852111057126" cy="193.1101285419581" r="2" fill="#10262E" opacity=".6"/><circle cx="190.53595726194428" cy="190.61095931404554" r="2" fill="#10262E" opacity=".6"/><path d="M237 160L248 160" stroke="#8A9AA0" stroke-width="2" fill="none" marker-end="url(#a)"/><rect x="250" y="120" width="80" height="80" rx="6" fill="#1F6A7A" opacity="0.55"/><circle cx="319.061650579971" cy="141.10217006651783" r="2" fill="#10262E" opacity=".6"/><circle cx="306.6955646205965" cy="182.89551019094787" r="2" fill="#10262E" opacity=".6"/><circle cx="301.0831296359374" cy="161.29301841191122" r="2" fill="#10262E" opacity=".6"/><circle cx="275.6548448576223" cy="149.19267255440263" r="2" fill="#10262E" opacity=".6"/><circle cx="271.46771087187614" cy="130.62859843926663" r="2" fill="#10262E" opacity=".6"/><circle cx="296.03008489329784" cy="145.51676005244067" r="2" fill="#10262E" opacity=".6"/><circle cx="311.09304777255886" cy="129.06522308580446" r="2" fill="#10262E" opacity=".6"/><circle cx="317.44543116242323" cy="173.17198129621335" r="2" fill="#10262E" opacity=".6"/><circle cx="318.82212636989243" cy="186.96656721891532" r="2" fill="#10262E" opacity=".6"/><circle cx="317.1778888496183" cy="165.2328314733227" r="2" fill="#10262E" opacity=".6"/><circle cx="256.89382577472367" cy="176.6802821771454" r="2" fill="#10262E" opacity=".6"/><circle cx="267.68386815649814" cy="146.39238867353754" r="2" fill="#10262E" opacity=".6"/><circle cx="301.0769350927283" cy="161.69756120827608" r="2" fill="#10262E" opacity=".6"/><circle cx="284.1350304456113" cy="189.8548875010741" r="2" fill="#10262E" opacity=".6"/><circle cx="297.62714585456206" cy="149.21198070442367" r="2" fill="#10262E" opacity=".6"/><circle cx="273.1682894087981" cy="184.59320071925737" r="2" fill="#10262E" opacity=".6"/><circle cx="288.4494297741763" cy="179.1981076015013" r="2" fill="#10262E" opacity=".6"/><circle cx="279.9252308533685" cy="139.41868970029822" r="2" fill="#10262E" opacity=".6"/><circle cx="292.35531875758886" cy="181.54313761075076" r="2" fill="#10262E" opacity=".6"/><circle cx="267.6485537311662" cy="179.83369048398436" r="2" fill="#10262E" opacity=".6"/><circle cx="318.680122766607" cy="180.81147066307813" r="2" fill="#10262E" opacity=".6"/><circle cx="311.99791585364346" cy="126.51032097004422" r="2" fill="#10262E" opacity=".6"/><path d="M332 160L343 160" stroke="#8A9AA0" stroke-width="2" fill="none" marker-end="url(#a)"/><rect x="345" y="120" width="80" height="80" rx="6" fill="#1F6A7A" opacity="0.7500000000000001"/><circle cx="393.7452903004056" cy="184.65371062769646" r="2" fill="#10262E" opacity=".6"/><circle cx="354.3953659492824" cy="144.45499829114667" r="2" fill="#10262E" opacity=".6"/><circle cx="369.263855561838" cy="161.85410013301444" r="2" fill="#10262E" opacity=".6"/><circle cx="379.76291229923186" cy="158.15720088758988" r="2" fill="#10262E" opacity=".6"/><circle cx="403.80184092914885" cy="126.12298818139378" r="2" fill="#10262E" opacity=".6"/><circle cx="354.72868407306595" cy="134.62670346454212" r="2" fill="#10262E" opacity=".6"/><circle cx="359.4745839490642" cy="130.6523348154968" r="2" fill="#10262E" opacity=".6"/><circle cx="417.2790921199676" cy="184.1025275622674" r="2" fill="#10262E" opacity=".6"/><circle cx="356.8567045260035" cy="160.14416045933532" r="2" fill="#10262E" opacity=".6"/><circle cx="372.4809445938381" cy="147.39142642081313" r="2" fill="#10262E" opacity=".6"/><circle cx="374.88768996472805" cy="169.99012570452132" r="2" fill="#10262E" opacity=".6"/><circle cx="390.88969222217827" cy="150.53675182175093" r="2" fill="#10262E" opacity=".6"/><circle cx="363.99357604373654" cy="148.3567886140315" r="2" fill="#10262E" opacity=".6"/><text x="215" y="235" font-size="16" fill="#8A9AA0" text-anchor="middle" font-weight="normal">扩散去噪 → 生成动作</text><path d="M440 160L480 120" stroke="#1F6A7A" stroke-width="3" fill="none" marker-end="url(#a)"/><path d="M440 160L480 260" stroke="#1F6A7A" stroke-width="3" fill="none" marker-end="url(#a)"/><rect x="490" y="80" width="0" height="0"/><rect x="490" y="80" width="0" height="0"/><rect x="490" y="80" width="0" height="0"/><rect x="485" y="80" width="130" height="36" rx="6" fill="#B8862E" stroke="none" stroke-width="2"/><text x="550.0" y="103.6" font-size="16" fill="#fff" text-anchor="middle" font-weight="normal">左变道</text><text x="550" y="70" font-size="15" fill="#8A9AA0" text-anchor="middle" font-weight="normal">离散选择</text><rect x="485" y="250" width="130" height="10" rx="5" fill="#E3ECEE"/><rect x="485" y="250" width="86" height="10" rx="5" fill="#1F6A7A"/><circle cx="571" cy="255" r="10" fill="#fff" stroke="#1F6A7A" stroke-width="3"/><text x="550" y="240" font-size="15" fill="#8A9AA0" text-anchor="middle" font-weight="normal">连续参数：加速度</text><g transform="translate(120 330) rotate(0) scale(1)"><rect x="-26" y="-14" width="52" height="28" rx="7" fill="#1F6A7A"/><rect x="-6" y="-11" width="18" height="22" rx="3" fill="#fff" opacity=".55"/></g><g transform="translate(220 330) rotate(0) scale(1)"><rect x="-26" y="-14" width="52" height="28" rx="7" fill="#5B6FA8"/><rect x="-6" y="-11" width="18" height="22" rx="3" fill="#fff" opacity=".55"/></g><g transform="translate(320 330) rotate(0) scale(1)"><rect x="-26" y="-14" width="52" height="28" rx="7" fill="#1F6A7A"/><rect x="-6" y="-11" width="18" height="22" rx="3" fill="#fff" opacity=".55"/></g><text x="220" y="385" font-size="16" fill="#10262E" text-anchor="middle" font-weight="normal">多智能体协作决策</text>
<text x="628" y="428" text-anchor="end" font-size="14" fill="#A5B1B5">示意图 · 可替换为论文原图</text></svg>