<svg xmlns="http://www.w3.org/2000/svg" viewBox="0 0 640 440" font-family="Helvetica,Arial,'PingFang SC','Noto Sans SC',sans-serif">
<defs><marker id="a" viewBox="0 0 10 10" refX="9" refY="5" markerWidth="7" markerHeight="7" orient="auto-start-reverse"><path d="M0 0L10 5L0 10z" fill="context-stroke"/></marker></defs>
<rect width="640" height="440" fill="#fff"/><rect x="0" y="180" width="640" height="90" fill="#E3ECEE"/><rect x="275" y="0" width="90" height="440" fill="#E3ECEE"/><path d="M0 225H275M365 225H640" stroke="#fff" stroke-width="3" stroke-dasharray="16 12"/><g transform="translate(60 245) rotate(0) scale(0.85)"><rect x="-26" y="-14" width="52" height="28" rx="7" fill="#1F6A7A"/><rect x="-6" y="-11" width="18" height="22" rx="3" fill="#fff" opacity=".55"/></g><g transform="translate(125 245) rotate(0) scale(0.85)"><rect x="-26" y="-14" width="52" height="28" rx="7" fill="#1F6A7A"/><rect x="-6" y="-11" width="18" height="22" rx="3" fill="#fff" opacity=".55"/></g><g transform="translate(190 245) rotate(0) scale(0.85)"><rect x="-26" y="-14" width="52" height="28" rx="7" fill="#1F6A7A"/><rect x="-6" y="-11" width="18" height="22" rx="3" fill="#fff" opacity=".55"/></g><g transform="translate(245 245) rotate(0) scale(0.85)"><rect x="-26" y="-14" width="52" height="28" rx="7" fill="#1F6A7A"/><rect x="-6" y="-11" width="18" height="22" rx="3" fill="#fff" opacity=".55"/></g><rect x="385" y="120" width="30" height="80" rx="6" fill="#10262E"/><circle cx="400" cy="140" r="9" fill="#555"/><circle cx="400" cy="160" r="9" fill="#B8862E"/><circle cx="400" cy="180" r="9" fill="#555"/><path d="M60 300L245 300" stroke="#1F6A7A" stroke-width="2.5" fill="none" marker-end="url(#a)"/><text x="152" y="330" font-size="17" fill="#1F6A7A" text-anchor="middle" font-weight="normal">动态调整车速与间距</text><text x="470" y="330" font-size="17" fill="#B8862E" text-anchor="start" font-weight="normal">信号相位</text><text x="320" y="70" font-size="19" fill="#10262E" text-anchor="middle" font-weight="normal">车队按信号灯相位不停车通过交叉口</text>
<text x="628" y="428" text-anchor="end" font-size="14" fill="#A5B1B5">示意图 · 可替换为论文原图</text></svg>